<?xml version="1.0" encoding="UTF-8"?><svg id="Layer_2" xmlns="http://www.w3.org/2000/svg" viewBox="0 0 412.93 451.94"><defs><style>.cls-1{fill:#fff;stroke-width:0px;}</style></defs><g id="Layer_1-2"><path class="cls-1" d="M412.4,58.98c-.66-3.71-4.6-6.01-8.3-4.47-2.56,1.06-4.02,3.88-3.54,6.61,1.09,6.16-.37,15.42-3.74,23.59-3.7,9-9.16,15.49-14.98,17.82-4.22,1.69-8.39,1.38-11.14-.82-.45-.36-.86-.77-1.24-1.23-1.04-1.26-.55-3.2,1.01-3.67.73-.22,1.41-.48,2.02-.78,11.85-5.74,14.42-21.28,12.42-29.97-1.47-6.41-5.46-10.23-10.67-10.23-12.33,0-19.05,19.98-19.85,24.95-.08.48-.15.95-.21,1.41-.23,1.63-1.79,2.81-3.36,2.3-1.56-.5-2.41-2.21-1.83-3.78.13-.34.25-.69.38-1.03,1.47-3.96.79-9.71-2.9-12.5-2.29-1.73-6.14-2.54-10.11.36-2.59,1.9-4.14,4.89-4.35,8.44-.14,2.37.32,4.94,1.27,7.43.64,1.69.72,3.55.15,5.26-1.32,3.92-2.54,7.76-3.66,11.51-.31,1.05-1.78,1.1-2.17.08-2.96-7.7-6.12-13.45-9.61-17.56-.54-.64-1.18-1.13-1.88-1.48-1.08-.93-2.48-1.48-4-1.46-3.52.04-6.15,3.32-5.89,6.83,1.13,15.65-4.25,40.72-10.52,42.01-.72.15-8.88-16.15-4.51-31.13.93-3.19-1.6-6.39-4.87-6.96-.05,0-.1-.01-.15-.02-3.05-1.07-6.42.46-7.6,3.5-1.21,3.13-2.57,7.44-4.14,12.42-2.3,7.29-6.8,21.87-10.84,29.02-.96,1.7-3.47,1.51-4.09-.35-1.17-3.53-2.52-9.92-3.26-21.32-.32-4.96-.48-10.17-.53-15.41l-.23.44c.49-2.1.97-4.2,1.43-6.29.74-3.39,3.21-6.15,6.53-7.19l106.58-33.54c2.77-.87,4.72-3.55,4.39-6.44-.45-3.89-4.25-6.21-7.79-5.1l-67.16,21.14c-.81.26-1.65.43-2.5.49-2.97.21-7.3.08-7.41-2.51-.08-1.92-.19-2.85,1.94-5.84,1.31-1.45,1.98-3.49,1.53-5.68-.52-2.49-2.59-4.5-5.09-4.95-4.07-.73-7.61,2.38-7.61,6.31,0,2.02.93,3.82,2.39,5,1.38,1.48,2.9,3.17,2.37,6.75-.1.65-.68,1.89-1.63,3.2-1.39,1.93-3.4,3.33-5.66,4.04l-11.86,3.73c-2.43.76-4.83-1.29-4.43-3.8,3.83-24.22,5.06-46.41,3.27-62.58-.26-2.36-1.79-4.47-4.03-5.23-3.52-1.19-7.13,1.02-7.85,4.46l-.5,2.36c-2.11,9.97-6.49,30.72-8.01,57.26-.18,3.13-.33,6.13-.46,9.02-.15,3.32-2.35,6.18-5.51,7.18l-95.53,30.07c-3.05.96-5.09,4.08-4.35,7.2.67,2.82,3.16,4.64,5.85,4.64.6,0,1.21-.09,1.81-.28l92.69-29.17c2.24-.71,4.52.97,4.52,3.32,0,.42,0,.85,0,1.26-8.98,37.62-18.06,53.01-21.1,54.56h-.03c-1.79.86-3.89.07-4.5-1.82-.09-.29-.13-.54-.17-.83-.66-4.84.98-13.56,2.3-20.56.55-2.93,1.07-5.7,1.41-8.07.37-2.6-1.19-5.79-3.64-6.75-2.41-.95-4.87-.29-6.47,1.28-.8.79-1.95,1.17-3.05.93-2.74-.59-6.3-.45-10.84,1.29-3.92,1.5-6.85,3.84-9.12,6.6-.08.09-.18.15-.26.24-.68.77-1.32,1.74-1.92,2.83-2.83,4.64-4.38,10-5.74,14.75-.17.41-.44,1.08-.61,1.49-.2.33-.37.68-.5,1.05-2.52,6.93-8.85,17.51-14.84,22.23-1.77,1.39-4.14-.58-3.07-2.55,3.63-6.69,6.49-13.4,7.71-18.37.93-3.78-.04-8.04-2.59-11.39-2.46-3.24-6.01-5.15-9.73-5.26-4.42-.13-8.45,2.11-11.29,6.29-5.7,8.41-6.22,23.95-2.87,31.7v.02c.68,1.64.43,3.53-.67,4.92-2.13,2.69-3.97,4.58-5.48,5.89-1.85,1.59-4.76.38-4.96-2.05-.27-3.22-.2-7.01-.17-8.74.06-3.09.09-5.13-.31-6.78-1.79-7.28-7.26-10.69-11.65-13.42l-.37-.23c-1.84-1.15-2.86-3.24-2.68-5.41.24-3.02.11-5.78-.41-8.25-.99-4.75-3.46-8.49-6.79-10.28-3.8-2.03-7.3-.84-8.95,1.36-5.74,7.65.69,19.35,2.12,23.41.25.72.27,1.5.04,2.23,0,0,0,0,0,.01-7.75,41.15-52.97,90.05-77.32,57.91C-1.87,172.58,45.04,97.22,69.17,71.49c8.2-8.74,25.35-18.4,36.54-11.3,3.28,2.08,7.04,7.01,4.02,12.07-.64.62-3.08,1.48-4.94,1.08-.81-.17-.89-.41-.96-.64-1.19-3.57-5.4-5.28-8.84-3.23-2.66,1.58-3.42,4.96-2.27,7.83,1.82,4.53,5.83,7.45,11.12,8.06,6.38.73,13.29-2.15,16.08-6.7,6.79-11.07,1.07-23-7.77-28.6-18.84-11.96-40.6,2.53-49.81,11.34C35.36,87.21,3.98,135.95.32,177.77c-2.22,25.25,7.65,40.73,14.75,47.81,6.77,6.75,17.46,11.48,26.77,10.93,10.71-.63,19.91-4.11,27.84-9.42,2.15-1.44,5.16-.76,6.4,1.51,2.05,3.76,3.57,11.2,2.73,23.75-.9,13.56-5.56,18.82-8.23,20.74-.62.45-1.31.76-2.05.95-.31.08-.62.16-.93.24-3.07.76-5.47,3.88-4.91,6.99.53,2.95,3.08,4.96,5.91,4.96.46,0,.93-.05,1.4-.17,23.01-5.51,41.13-16.8,56.14-35.57,1.89-2.36,5.68-.85,5.39,2.15-1.26,13.2-2.98,28.63-5.34,44.45-.59,3.95-2.38,7.63-5.16,10.5-6.96,7.17-13.76,13.25-20.11,18.93-13.22,11.83-24.64,22.04-31.75,36.58-10.11,20.66-8.2,32.17-4.57,38.43,3.78,6.53,10.49,10.08,17.88,10.47,7.92,2.86,4.78,16.27,2.89,21-1.76,4.4-4.78,8.05-3.16,13.66,1.81,6.3,12.27,8.08,15.64-1.03,2.14-5.78-3.25-11.48-4.27-15.29-.75-2.8-3.05-16.38,4.92-22.74,15.15-10.21,26.95-37.86,35.7-81.05.96-4.76,1.86-9.58,2.69-14.4.53-3.09,1.84-5.99,3.85-8.39,5.27-6.28,10.56-13.32,15.74-21.38,1.37-2.13,4.45-2.29,5.97-.26.44.59.94,1.15,1.5,1.67,2.01,1.88,5.27,3.68,10.18,3.26,3.29-.48,6.29-.95,8.94-2.93,3.65-2.32,7-6.17,10-10.83.82-1.27,2.59-1.49,3.68-.45l.02.02c2.72,2.61,7.66,5.2,15.75,2.78,4.89-1.47,9.12-5.6,12.71-11.01,1.58-2.38,4.69-3.31,7.17-1.89.27.15.55.3.84.44,1.17.55,2.46,1.04,3.85,1.4,1.41.36,2.54,1.48,2.9,2.89.91,3.56-.42,9.29-3.46,14.81-5.03,9.13.75,15.28,4.26,16.35,5.34,1.62,14.21-1.86,12.26-12.88-.71-4.01-7.22-8.88-7.72-13.35-.24-2.11.03-3.89.96-5.57s2.41-3.05,4.12-3.95c2.66-1.39,5.42-3.51,8.23-6.59.07-.08.14-.15.21-.23,1.96-2.2,5.27-2.71,7.66-.99,2.08,1.5,4.35,2.55,6.68,3.04,1.03.22,2.11.33,3.22.33,8.38,0,19.04-6.19,31.82-18.46,2.18-2.1,6.22-2.83,9.09-1.86,5.07,1.71,10.74,1.47,16.38-.82,1.29-.53,2.54-1.09,3.75-1.7,5.45-1.3,2.49,7.3.68,10.99-1.62,3.3-1.91,6.51-1.5,7.85,2.25,7.51,12.98,7.18,14.27-1.09.85-5.47-5.63-14.89-5.81-17.42-.17-2.5.78-5,2.8-7.52,10.17-9.41,15.26-23.53,15.75-42.8.08-3.29-2.3-6.24-5.58-6.47-3.5-.24-6.36,2.45-6.43,5.86-.49,22.16-6.4,33.21-21.66,39.41-.88.36-1.74.62-2.57.8-2.29.48-3.91-2.18-2.58-4.11,6.43-9.29,10.23-18.95,8.92-27.16-.69-4.33-2.93-7.67-6.48-9.67-1.36-.76-2.95-1.26-4.61-1.49-9.37-4.07-11.21-37.81-7.56-65.63.12-.46.23-.92.34-1.38l.02-.09c.52-2.19,3.58-2.29,4.26-.15,1.24,3.91,2.16,8.38,3.33,13.33.64,2.72,2,5.46,5.83,5.28,3.83-.18,5.73-3.18,6.27-5.96,1.62-8.37,3.94-17.46,6.93-27.15.98-3.19,4.46-5.2,7.72-4.45,2.33.53,4.97,2.78,5.76,5.04,1.7,4.83,4.41,9.31,7.03,11.4,6.18,4.95,15.38,5.51,23.68,2.19,19.4-7.76,29.09-39.58,26.13-56.22ZM120.8,328.45s-.82,3.27-.82,3.27c-12.47,61.58-25.17,65.64-33.33,66.53-3.47.33-8.6-.82-10.79-3.98-3.14-4.52-1.6-14.2,4.12-25.88,6.08-12.42,16.18-21.46,28.97-32.9,3.21-2.87,5.52-5.51,8.92-8.66,1.25-1.16,3.26-.05,2.93,1.62ZM196.08,133.99c1.41-2.42,3.14-4.14,5.56-5.07,3-1.15,4.06-.76,4.06-.76h.01c.21.18.69,1.14.83,3.26-.02.17-.04.33-.04.5-.43,11.86-3.15,23.34-9.2,25.21-2.94.91-3.39.23-3.59-.06-3.06-4.57-.22-17.74,2.37-23.09ZM154.49,143.93c.86-1.93,1.65-2.54,1.75-2.61.49.16,1.17,1.27,1.09,1.77-.51,2.08-1.56,4.97-3.03,8.28-.38.85-1.68.5-1.57-.43.3-2.54.88-5.02,1.77-7.01ZM305.43,192.29c-2.33,3.41-3.91,7.06-4.58,9.8-1.72,7.09-.87,14.75,1.3,20.61,1.05,2.83.46,6.02-1.72,8.1-12.12,11.63-20.69,15.41-24.36,14.63-4.52-.96-7.41-6.96-6.37-13.3l.16-.79c1.39-7,1.83-13.85,5.44-18.77,0,0,0-.01,0-.01,1.2-1.5,3.69-.53,3.57,1.38-.02.3-.05.62-.1.96-.26,1.74.2,3.57,1.52,4.74,4.32,3.81,9.84,1.11,10.43-3.42.85-6.48-1.23-12.31-5.54-15.59-3.48-2.64-7.89-3.23-11.8-1.58-2.72,1.15-6.42,4.55-7.77,6.39-5.2,7.1-6.91,15.73-8.42,23.34l-.18.92c-1.36,6.83-3.89,13.51-8.08,18.09-6.07,6.65-8.48,5.74-10.2,4.92-1.01-.48-2.12-6.29-.73-13.84.39-2.11.97-4.24,1.58-6.5,1.12-4.11,2.27-8.36,2.43-13.02.04-1.07-.15-2.17-.62-3.13-2.7-5.49-11.01-3.66-11.95,1.27-4.47,23.32-13.32,43.76-19.88,45.73-.92.28-3.15.84-3.97.06-1.74-1.63-1.81-7.3-1.38-9.15l5.62-23.08c.29-1.12.55-2.13.76-3,.71-2.89-.57-6.05-3.3-7.25-3.51-1.54-7.38.47-8.28,4.01l-.93,3.69c-6.89,26.26-16.57,43.85-22.29,45.93-2.47.9-3.52.65-3.61.57-1.11-1.02-1.24-5.84-.68-7.84,1.13-3.96,3.05-10.94,4.9-17.69,1.81-6.59,3.67-13.39,4.8-17.36.79-2.75-.26-5.85-2.77-7.22-3.32-1.81-7.29-.21-8.55,3.16-7.54,20.23-15.92,36.26-24.57,49.41-1.02,1.55-3.43.64-3.21-1.2,2.7-22.53,4.17-42.26,5-53.33.3-4.08.56-7.6.7-8.53.47-3.29-1.81-6.33-5.1-6.8-2.94-.42-5.67,1.36-6.56,4.08-.57.53-1.05,1.19-1.39,1.95-8.83,19.79-20.5,35.05-34.88,45.66-3.99,2.95-9.63,1.68-11.85-2.75-2.8-5.58-3.22-14.73-3-22.04.19-6.44,1.04-13.12,2.13-18.51.94-4.68,2.74-9.14,5.33-13.15,8.5-13.22,14.34-28.16,18.47-40.6,1.11-3.35,4.11-4.06,6.63-1.6l.06.06c1.09,1.08,1.63,2.59,1.62,4.12,0,.74-.02,1.6-.03,2.32-.13,7.25-.31,17.18,4.82,22.4,2.08,2.12,4.78,3.25,7.79,3.25,5.46,0,11.31-3.57,17.43-10.64,1.24-1.43,3.2-2.05,5.01-1.5.29.09.59.17.89.24,1.26.29,2.5.43,3.72.43,8.59,0,15.74-7.1,21.76-14.49,1.23-1.5,3.55-1.08,3.89-.13.92,2.53,5.02,4.21,9.94,4.21,1.76,0,3.74-.29,5.97-.98,3.37-1.04,6.12-2.95,8.37-5.41,1.02-1.12,2.92-1.49,4.26-.78h.02c1.81.99,3.8,1.48,5.93,1.48,2.6,0,5.42-.72,8.46-2.17,1.24-.59,2.75-1.54,4.52-3.41,4.97-3.23,4.37,13.55,3.51,21.16-.82,7.24-4.78,12.43-4.6,16.44,0,3.97,3.22,7.19,7.19,7.19s7.19-3.22,7.19-7.19c0-.2,0-.39-.03-.6-.08-.92-.33-1.8-.72-2.59-1.39-3.72-4.19-9.62-3.85-22.54.3-11.19,3.79-19.71,7.76-22.3,1.54-1,3.55-.73,4.97.42.16.13.3.24.43.34,2.97,2.27,6.86,2.17,10.46.97,5.52-1.84,9.77-8.5,13.83-18.45.82-2.02,3.64-2.14,4.65-.21.93,1.78,1.61,4.02,2.94,5.31,2.53,2.46,6.26,4.76,9.65,4.55,1.45-.09,2.85-.44,4.2-1.04,1.73-.76,3.77-.16,4.66,1.51,4.48,8.43,7.69,35.03,1.18,49.65ZM313.79,205.69c1.07-4.43,4.1-8.72,6.11-10.31.82-.65,1.86-.48,2,.55.44,3.28-1.53,9.43-5.74,16.31-.89,1.45-3.12.78-3.1-.92.03-1.82.26-3.72.73-5.63ZM366.88,84.12c.06-.42.12-.85.19-1.29.62-3.86,2.82-9.11,4.87-12.29.44-.69,1.51-.42,1.55.4.09,1.53-.02,3.44-.51,5.56-.9,3.88-2.73,6.86-5.06,8.33-.5.31-1.12-.14-1.05-.72Z"/></g></svg>