<?xml version="1.0" encoding="UTF-8"?><svg id="Layer_2" xmlns="http://www.w3.org/2000/svg" viewBox="0 0 23.81 23.81"><defs><style>.cls-1{fill:#fff;stroke-width:0px;}</style></defs><g id="Layer_1-2"><path class="cls-1" d="M18.23,23.81H5.57c-3.07,0-5.57-2.5-5.57-5.57V5.57C0,2.5,2.5,0,5.57,0h12.66c3.07,0,5.57,2.5,5.57,5.57v12.66c0,3.07-2.5,5.57-5.57,5.57ZM5.57,1C3.05,1,1,3.05,1,5.57v12.66c0,2.52,2.05,4.57,4.57,4.57h12.66c2.52,0,4.57-2.05,4.57-4.57V5.57c0-2.52-2.05-4.57-4.57-4.57H5.57Z"/><path class="cls-1" d="M11.58,16.94c-2.81,0-5.1-2.29-5.1-5.1s2.29-5.1,5.1-5.1,5.1,2.29,5.1,5.1-2.29,5.1-5.1,5.1ZM11.58,7.74c-2.26,0-4.1,1.84-4.1,4.1s1.84,4.1,4.1,4.1,4.1-1.84,4.1-4.1-1.84-4.1-4.1-4.1Z"/><path class="cls-1" d="M18.55,6.61c-.96,0-1.74-.78-1.74-1.74s.78-1.74,1.74-1.74,1.74.78,1.74,1.74-.78,1.74-1.74,1.74ZM18.55,4.14c-.41,0-.74.33-.74.74s.33.74.74.74.74-.33.74-.74-.33-.74-.74-.74Z"/></g></svg>