<?xml version="1.0" encoding="UTF-8"?><svg id="Layer_2" xmlns="http://www.w3.org/2000/svg" viewBox="0 0 156.85 37.24"><defs><style>.cls-1{fill:#bdff06;}.cls-1,.cls-2{stroke-width:0px;}.cls-2{fill:#fff;}</style></defs><g id="Layer_1-2"><path class="cls-1" d="M55.98,5.87h6.4c3.21,0,5.75,1.06,5.75,4.37,0,1.65-.62,3.5-1.92,4.65-1.28,1.16-3.05,1.47-5.54,1.47h-2.24l-.91,5.15h-4.31l2.76-15.65ZM61.27,13.06c.9,0,1.43-.2,1.82-.68.29-.35.57-.96.57-1.78,0-1.22-.62-1.42-1.81-1.42h-2.14l-.69,3.87h2.25Z"/><path class="cls-1" d="M68.24,17.3c1.25,0,2.27,1.02,2.27,2.27s-1.02,2.26-2.27,2.26-2.26-1.01-2.26-2.26,1.01-2.27,2.26-2.27Z"/><path class="cls-1" d="M75.54,5.87h11.25l-.58,3.31h-6.93l-.52,2.93h6.07l-.57,3.26h-6.07l-1.08,6.15h-4.31l2.76-15.65Z"/><path class="cls-1" d="M88.92,5.87h4.31l-2.76,15.65h-4.31l2.76-15.65Z"/><path class="cls-1" d="M96.14,5.87h5.05l1.69,5.77c.46,1.57.78,2.71,1.15,4.07h.04c.22-1.45.4-2.53.72-4.36l.97-5.48h4.11l-2.76,15.65h-5.05l-1.69-5.77c-.46-1.57-.78-2.71-1.15-4.07h-.04c-.22,1.45-.4,2.53-.72,4.36l-.97,5.48h-4.11l2.76-15.65Z"/><path class="cls-1" d="M112.36,5.87h5.05l1.69,5.77c.46,1.57.78,2.71,1.15,4.07h.04c.22-1.45.4-2.53.72-4.36l.97-5.48h4.11l-2.76,15.65h-5.05l-1.69-5.77c-.46-1.57-.78-2.71-1.15-4.07h-.04c-.22,1.45-.4,2.53-.72,4.36l-.97,5.48h-4.11l2.76-15.65Z"/><path class="cls-1" d="M128.57,5.87h11.32l-.58,3.31h-7.01l-.48,2.7h6.17l-.57,3.26h-6.17l-.54,3.07h7.04l-.58,3.31h-11.35l2.76-15.65Z"/><path class="cls-1" d="M145.35,14.76l-4.1-8.88h4.6l1.09,2.72c.44,1.09.72,1.82,1.07,2.82h.05c.74-1.01,1.42-1.91,2.16-2.86l2.06-2.68h4.56l-7.18,8.84-1.2,6.81h-4.31l1.2-6.77Z"/><path class="cls-2" d="M58.22,31.76c-.1,0-.15-.04-.17-.16-.1-.7-.74-1.24-1.65-1.24-1.04,0-1.89.8-1.89,1.99s.81,1.99,1.89,1.99c.92,0,1.54-.46,1.65-1.13.02-.13.07-.17.19-.17h1.01c.08,0,.17.05.17.15,0,1.31-1.23,2.31-3.03,2.31s-3.27-1.27-3.27-3.14,1.44-3.14,3.27-3.14c1.92,0,3.03,1.22,3.03,2.42,0,.07-.05.13-.16.13h-1.04Z"/><path class="cls-2" d="M61,29.43c0-.06.06-.12.12-.12h2.82c1.48,0,2.53.8,2.53,2.13,0,.92-.56,1.54-1.37,1.82v.02s.18.19.32.41l1.02,1.5c.05.07.06.11.06.13,0,.04-.02.07-.08.07h-1.35c-.05,0-.12-.04-.16-.1l-1.24-1.8h-1.31v1.78c0,.06-.06.12-.12.12h-1.13c-.06,0-.12-.06-.12-.12v-5.83ZM62.37,30.46v1.92h1.47c.76,0,1.25-.35,1.25-.95s-.49-.97-1.25-.97h-1.47Z"/><path class="cls-2" d="M69.42,32.85v1.38h3.57c.06,0,.14.08.14.14v.87c0,.06-.08.14-.14.14h-4.82c-.06,0-.12-.06-.12-.12v-5.83c0-.06.06-.12.12-.12h4.76c.06,0,.14.08.14.14v.87c0,.06-.08.14-.14.14h-3.5v1.24h3.2c.06,0,.14.08.14.14v.87c0,.06-.08.14-.14.14h-3.2Z"/><path class="cls-2" d="M78.92,34.33h-2.96l-.44.92c-.06.12-.09.13-.21.13h-1.21c-.06,0-.08-.04-.08-.07s.02-.08.04-.12l2.86-5.89h1.05l2.86,5.89s.04.09.04.12-.02.07-.08.07h-1.21c-.12,0-.15-.01-.21-.13l-.46-.92ZM76.45,33.26h2.01l-.55-1.12c-.21-.44-.43-1.08-.43-1.08h-.06s-.21.65-.43,1.08l-.55,1.12Z"/><path class="cls-2" d="M80.66,30.46c-.06,0-.14-.08-.14-.14v-.87c0-.06.08-.14.14-.14h5.75c.06,0,.14.08.14.14v.87c0,.06-.08.14-.14.14h-2.19v4.8c0,.06-.06.12-.12.12h-1.13c-.06,0-.12-.06-.12-.12v-4.8h-2.19Z"/><path class="cls-2" d="M89.2,35.26c0,.06-.06.12-.12.12h-1.13c-.06,0-.12-.06-.12-.12v-5.83c0-.06.06-.12.12-.12h1.13c.06,0,.12.06.12.12v5.83Z"/><path class="cls-2" d="M93.38,32.37c.21.44.4,1,.4,1h.06s.18-.57.4-1l1.41-2.93c.06-.12.09-.13.21-.13h1.22c.06,0,.08.03.08.06s-.03.09-.06.15l-2.81,5.86h-.95l-2.81-5.86c-.03-.06-.06-.12-.06-.15s.02-.06.08-.06h1.22c.12,0,.15.01.21.13l1.41,2.93Z"/><path class="cls-2" d="M99.79,32.85v1.38h3.57c.06,0,.14.08.14.14v.87c0,.06-.08.14-.14.14h-4.82c-.06,0-.12-.06-.12-.12v-5.83c0-.06.06-.12.12-.12h4.76c.06,0,.14.08.14.14v.87c0,.06-.08.14-.14.14h-3.5v1.24h3.2c.06,0,.14.08.14.14v.87c0,.06-.08.14-.14.14h-3.2Z"/><path class="cls-2" d="M108.55,33.34c.12,0,.18.05.2.15.1.52.54.84,1.5.84s1.41-.36,1.41-.8c0-.28-.2-.54-.81-.59l-1.58-.13c-1.24-.1-1.89-.67-1.89-1.58,0-1.05.92-2.03,2.71-2.03s2.66.86,2.66,1.83c0,.09-.07.17-.19.17h-1c-.1,0-.16-.03-.18-.15-.06-.35-.41-.7-1.3-.7s-1.33.34-1.33.79c0,.27.18.48.74.52l1.57.13c1.42.12,1.98.83,1.98,1.67,0,.95-.82,2.02-2.79,2.02-1.85,0-2.88-.88-2.88-1.88v-.08c0-.1.08-.18.19-.18h.98Z"/><path class="cls-2" d="M113.83,30.46c-.06,0-.14-.08-.14-.14v-.87c0-.06.08-.14.14-.14h5.75c.06,0,.14.08.14.14v.87c0,.06-.08.14-.14.14h-2.19v4.8c0,.06-.06.12-.12.12h-1.13c-.06,0-.12-.06-.12-.12v-4.8h-2.19Z"/><path class="cls-2" d="M125.74,29.43c0-.06.06-.12.12-.12h1.13c.06,0,.12.06.12.12v3.05c0,1.97-1.24,3.01-3.1,3.01s-3.1-1.04-3.1-3.01v-3.05c0-.06.06-.12.12-.12h1.13c.06,0,.12.06.12.12v3.04c0,1.26.62,1.86,1.72,1.86s1.72-.61,1.72-1.86v-3.04Z"/><path class="cls-2" d="M129.05,35.39c-.06,0-.12-.06-.12-.12v-5.83c0-.06.06-.12.12-.12h2.56c1.92,0,3.36,1.19,3.36,3.04s-1.22,3.04-3.34,3.04h-2.58ZM130.31,30.46v3.77h1.33c1.29,0,1.97-.73,1.97-1.88s-.83-1.88-1.99-1.88h-1.31Z"/><path class="cls-2" d="M137.93,35.26c0,.06-.06.12-.12.12h-1.13c-.06,0-.12-.06-.12-.12v-5.83c0-.06.06-.12.12-.12h1.13c.06,0,.12.06.12.12v5.83Z"/><path class="cls-2" d="M146.2,32.35c0,1.9-1.53,3.14-3.35,3.14s-3.35-1.24-3.35-3.14,1.53-3.14,3.35-3.14,3.35,1.27,3.35,3.14ZM140.87,32.35c0,1.23.9,1.99,1.98,1.99s1.98-.76,1.98-1.99-.9-1.99-1.98-1.99-1.98.76-1.98,1.99Z"/><path class="cls-2" d="M37.74,0H6.3L0,37.24h13.06l.86-5.11-8.9-4.5h26.7,0c4.91-.02,8.73-3.17,9.51-7.85l2.21-13.34c.53-3.16-2.38-6.45-5.71-6.45ZM16.41,17.42l1.21-7.13,11.99.88-1.04,6.25h-12.16Z"/></g></svg>