<?xml version="1.0" encoding="UTF-8"?><svg id="Layer_2" xmlns="http://www.w3.org/2000/svg" viewBox="0 0 29.46 35"><defs><style>.cls-1{fill:#b5ff00;stroke-width:0px;}</style></defs><g id="Layer_1-2"><path class="cls-1" d="M10.27,9.28l-2.12,4.47,12.12-6.44,1.68,1.54-2.08,5.19,9.26-5.07C27.8,3.82,22.98,0,17.42,0H0v12.22l8.98-4.22,1.29,1.28Z"/><path class="cls-1" d="M17.93,18.02l-1.78-1.63,2.3-5.46-12.04,6.02-1.37-1.33,2.04-4.38L0,14.75v20.21h11.8v-11.38h5.88c6.36,0,11.53-5.03,11.78-11.33l-11.53,5.77Z"/><path class="cls-1" d="M18.95,28.17c-2.29,0-3.41,1.58-3.41,3.41s1.12,3.41,3.41,3.41,3.41-1.58,3.41-3.41-1.12-3.41-3.41-3.41Z"/></g></svg>